<mxfile host="65bd71144e">
    <diagram id="R2lEEEUBdFMjLlhIrx00" name="Page-1">
        <mxGraphModel dx="1374" dy="1899" grid="1" gridSize="10" guides="1" tooltips="1" connect="1" arrows="1" fold="1" page="1" pageScale="1" pageWidth="850" pageHeight="1100" math="0" shadow="0" extFonts="Permanent Marker^https://fonts.googleapis.com/css?family=Permanent+Marker">
            <root>
                <mxCell id="0"/>
                <mxCell id="1" parent="0"/>
                <mxCell id="lBqhdyMT2XARNl9-Eb8Q-1" value="&amp;nbsp;Sinh Vien" style="rounded=0;whiteSpace=wrap;html=1;" parent="1" vertex="1">
                    <mxGeometry x="150" y="210" width="120" height="60" as="geometry"/>
                </mxCell>
                <mxCell id="lBqhdyMT2XARNl9-Eb8Q-3" value="Dia chi" style="ellipse;whiteSpace=wrap;html=1;" parent="1" vertex="1">
                    <mxGeometry x="100" y="80" width="80" height="45" as="geometry"/>
                </mxCell>
                <mxCell id="lBqhdyMT2XARNl9-Eb8Q-7" value="" style="endArrow=none;html=1;rounded=0;" parent="1" source="lBqhdyMT2XARNl9-Eb8Q-1" target="lBqhdyMT2XARNl9-Eb8Q-3" edge="1">
                    <mxGeometry width="50" height="50" relative="1" as="geometry">
                        <mxPoint x="220" y="210" as="sourcePoint"/>
                        <mxPoint x="270" y="160" as="targetPoint"/>
                    </mxGeometry>
                </mxCell>
                <mxCell id="lBqhdyMT2XARNl9-Eb8Q-12" value="Id sin vien" style="ellipse;shape=doubleEllipse;whiteSpace=wrap;html=1;fontStyle=4" parent="1" vertex="1">
                    <mxGeometry x="40" y="160" width="70" height="40" as="geometry"/>
                </mxCell>
                <mxCell id="lBqhdyMT2XARNl9-Eb8Q-13" value="so cccd" style="ellipse;shape=doubleEllipse;whiteSpace=wrap;html=1;fontStyle=4" parent="1" vertex="1">
                    <mxGeometry x="30" y="255" width="70" height="40" as="geometry"/>
                </mxCell>
                <mxCell id="lBqhdyMT2XARNl9-Eb8Q-15" value="" style="endArrow=none;html=1;rounded=0;" parent="1" source="lBqhdyMT2XARNl9-Eb8Q-1" target="lBqhdyMT2XARNl9-Eb8Q-12" edge="1">
                    <mxGeometry width="50" height="50" relative="1" as="geometry">
                        <mxPoint x="280" y="220" as="sourcePoint"/>
                        <mxPoint x="330" y="170" as="targetPoint"/>
                    </mxGeometry>
                </mxCell>
                <mxCell id="lBqhdyMT2XARNl9-Eb8Q-17" value="" style="endArrow=none;html=1;rounded=0;" parent="1" source="lBqhdyMT2XARNl9-Eb8Q-1" target="lBqhdyMT2XARNl9-Eb8Q-13" edge="1">
                    <mxGeometry width="50" height="50" relative="1" as="geometry">
                        <mxPoint x="270" y="230" as="sourcePoint"/>
                        <mxPoint x="320" y="220" as="targetPoint"/>
                    </mxGeometry>
                </mxCell>
                <mxCell id="lBqhdyMT2XARNl9-Eb8Q-19" value="Chi tiet hoc tap" style="shape=ext;double=1;rounded=0;whiteSpace=wrap;html=1;" parent="1" vertex="1">
                    <mxGeometry x="940" y="210" width="100" height="50" as="geometry"/>
                </mxCell>
                <mxCell id="lBqhdyMT2XARNl9-Eb8Q-20" value="CPA" style="ellipse;whiteSpace=wrap;html=1;" parent="1" vertex="1">
                    <mxGeometry x="1100" y="125" width="80" height="50" as="geometry"/>
                </mxCell>
                <mxCell id="lBqhdyMT2XARNl9-Eb8Q-21" value="Diem ren luyen" style="ellipse;whiteSpace=wrap;html=1;" parent="1" vertex="1">
                    <mxGeometry x="1240" y="230" width="70" height="50" as="geometry"/>
                </mxCell>
                <mxCell id="lBqhdyMT2XARNl9-Eb8Q-24" value="" style="endArrow=none;html=1;rounded=0;" parent="1" source="lBqhdyMT2XARNl9-Eb8Q-19" target="lBqhdyMT2XARNl9-Eb8Q-20" edge="1">
                    <mxGeometry width="50" height="50" relative="1" as="geometry">
                        <mxPoint x="720" y="230" as="sourcePoint"/>
                        <mxPoint x="770" y="180" as="targetPoint"/>
                    </mxGeometry>
                </mxCell>
                <mxCell id="lBqhdyMT2XARNl9-Eb8Q-25" value="" style="endArrow=none;html=1;rounded=0;" parent="1" source="lBqhdyMT2XARNl9-Eb8Q-19" target="lBqhdyMT2XARNl9-Eb8Q-21" edge="1">
                    <mxGeometry width="50" height="50" relative="1" as="geometry">
                        <mxPoint x="720" y="320" as="sourcePoint"/>
                        <mxPoint x="770" y="270" as="targetPoint"/>
                    </mxGeometry>
                </mxCell>
                <mxCell id="lBqhdyMT2XARNl9-Eb8Q-29" value="" style="endArrow=none;html=1;rounded=0;" parent="1" source="lBqhdyMT2XARNl9-Eb8Q-1" target="13" edge="1">
                    <mxGeometry width="50" height="50" relative="1" as="geometry">
                        <mxPoint x="360" y="310" as="sourcePoint"/>
                        <mxPoint x="410" y="245.49019607843138" as="targetPoint"/>
                    </mxGeometry>
                </mxCell>
                <mxCell id="lBqhdyMT2XARNl9-Eb8Q-30" value="" style="endArrow=none;html=1;rounded=0;" parent="1" source="13" target="lBqhdyMT2XARNl9-Eb8Q-19" edge="1">
                    <mxGeometry width="50" height="50" relative="1" as="geometry">
                        <mxPoint x="520" y="247" as="sourcePoint"/>
                        <mxPoint x="430" y="290" as="targetPoint"/>
                    </mxGeometry>
                </mxCell>
                <mxCell id="lBqhdyMT2XARNl9-Eb8Q-33" value="cong viec" style="ellipse;whiteSpace=wrap;html=1;" parent="1" vertex="1">
                    <mxGeometry x="240" y="320" width="90" height="50" as="geometry"/>
                </mxCell>
                <mxCell id="lBqhdyMT2XARNl9-Eb8Q-34" value="" style="endArrow=none;html=1;rounded=0;" parent="1" source="lBqhdyMT2XARNl9-Eb8Q-33" target="lBqhdyMT2XARNl9-Eb8Q-1" edge="1">
                    <mxGeometry width="50" height="50" relative="1" as="geometry">
                        <mxPoint x="190" y="320" as="sourcePoint"/>
                        <mxPoint x="240" y="270" as="targetPoint"/>
                    </mxGeometry>
                </mxCell>
                <mxCell id="lBqhdyMT2XARNl9-Eb8Q-35" value="quan tri vien" style="rounded=0;whiteSpace=wrap;html=1;" parent="1" vertex="1">
                    <mxGeometry x="915" y="520" width="120" height="60" as="geometry"/>
                </mxCell>
                <mxCell id="lBqhdyMT2XARNl9-Eb8Q-38" value="co van hoc tap" style="ellipse;whiteSpace=wrap;html=1;" parent="1" vertex="1">
                    <mxGeometry x="850" y="125" width="80" height="50" as="geometry"/>
                </mxCell>
                <mxCell id="lBqhdyMT2XARNl9-Eb8Q-39" value="nien khoa" style="ellipse;whiteSpace=wrap;html=1;" parent="1" vertex="1">
                    <mxGeometry x="1190" y="330" width="75" height="50" as="geometry"/>
                </mxCell>
                <mxCell id="lBqhdyMT2XARNl9-Eb8Q-40" value="" style="endArrow=none;html=1;rounded=0;" parent="1" source="lBqhdyMT2XARNl9-Eb8Q-19" target="lBqhdyMT2XARNl9-Eb8Q-38" edge="1">
                    <mxGeometry width="50" height="50" relative="1" as="geometry">
                        <mxPoint x="420" y="410" as="sourcePoint"/>
                        <mxPoint x="470" y="360" as="targetPoint"/>
                    </mxGeometry>
                </mxCell>
                <mxCell id="lBqhdyMT2XARNl9-Eb8Q-41" value="" style="endArrow=none;html=1;rounded=0;" parent="1" source="lBqhdyMT2XARNl9-Eb8Q-39" target="lBqhdyMT2XARNl9-Eb8Q-19" edge="1">
                    <mxGeometry width="50" height="50" relative="1" as="geometry">
                        <mxPoint x="670" y="330" as="sourcePoint"/>
                        <mxPoint x="720" y="280" as="targetPoint"/>
                    </mxGeometry>
                </mxCell>
                <mxCell id="lBqhdyMT2XARNl9-Eb8Q-42" value="" style="endArrow=none;html=1;rounded=0;" parent="1" source="lBqhdyMT2XARNl9-Eb8Q-35" target="lBqhdyMT2XARNl9-Eb8Q-54" edge="1">
                    <mxGeometry width="50" height="50" relative="1" as="geometry">
                        <mxPoint x="170" y="540" as="sourcePoint"/>
                        <mxPoint x="143.5377446520224" y="508.6247087648842" as="targetPoint"/>
                    </mxGeometry>
                </mxCell>
                <mxCell id="lBqhdyMT2XARNl9-Eb8Q-44" value="" style="endArrow=none;html=1;rounded=0;" parent="1" source="lBqhdyMT2XARNl9-Eb8Q-57" target="lBqhdyMT2XARNl9-Eb8Q-35" edge="1">
                    <mxGeometry width="50" height="50" relative="1" as="geometry">
                        <mxPoint x="149.68495328642484" y="571.6532062618364" as="sourcePoint"/>
                        <mxPoint x="180" y="530" as="targetPoint"/>
                    </mxGeometry>
                </mxCell>
                <mxCell id="lBqhdyMT2XARNl9-Eb8Q-45" value="email" style="ellipse;whiteSpace=wrap;html=1;" parent="1" vertex="1">
                    <mxGeometry x="370" y="145" width="80" height="40" as="geometry"/>
                </mxCell>
                <mxCell id="lBqhdyMT2XARNl9-Eb8Q-46" value="ten" style="ellipse;whiteSpace=wrap;html=1;" parent="1" vertex="1">
                    <mxGeometry x="60" y="310" width="90" height="50" as="geometry"/>
                </mxCell>
                <mxCell id="lBqhdyMT2XARNl9-Eb8Q-47" value="phone" style="ellipse;whiteSpace=wrap;html=1;" parent="1" vertex="1">
                    <mxGeometry x="310" y="260" width="90" height="50" as="geometry"/>
                </mxCell>
                <mxCell id="lBqhdyMT2XARNl9-Eb8Q-48" value="" style="endArrow=none;html=1;rounded=0;" parent="1" source="lBqhdyMT2XARNl9-Eb8Q-46" target="lBqhdyMT2XARNl9-Eb8Q-1" edge="1">
                    <mxGeometry width="50" height="50" relative="1" as="geometry">
                        <mxPoint x="210" y="640" as="sourcePoint"/>
                        <mxPoint x="260" y="590" as="targetPoint"/>
                    </mxGeometry>
                </mxCell>
                <mxCell id="lBqhdyMT2XARNl9-Eb8Q-49" value="" style="endArrow=none;html=1;rounded=0;" parent="1" source="lBqhdyMT2XARNl9-Eb8Q-47" target="lBqhdyMT2XARNl9-Eb8Q-1" edge="1">
                    <mxGeometry width="50" height="50" relative="1" as="geometry">
                        <mxPoint x="300" y="640" as="sourcePoint"/>
                        <mxPoint x="350" y="590" as="targetPoint"/>
                    </mxGeometry>
                </mxCell>
                <mxCell id="lBqhdyMT2XARNl9-Eb8Q-50" value="" style="endArrow=none;html=1;rounded=0;exitX=1;exitY=0.25;exitDx=0;exitDy=0;" parent="1" source="lBqhdyMT2XARNl9-Eb8Q-1" target="lBqhdyMT2XARNl9-Eb8Q-45" edge="1">
                    <mxGeometry width="50" height="50" relative="1" as="geometry">
                        <mxPoint x="220" y="530" as="sourcePoint"/>
                        <mxPoint x="270" y="480" as="targetPoint"/>
                    </mxGeometry>
                </mxCell>
                <mxCell id="lBqhdyMT2XARNl9-Eb8Q-54" value="user name" style="ellipse;shape=doubleEllipse;whiteSpace=wrap;html=1;" parent="1" vertex="1">
                    <mxGeometry x="1150" y="690" width="100" height="60" as="geometry"/>
                </mxCell>
                <mxCell id="lBqhdyMT2XARNl9-Eb8Q-57" value="password" style="ellipse;shape=doubleEllipse;whiteSpace=wrap;html=1;" parent="1" vertex="1">
                    <mxGeometry x="740" y="680" width="100" height="60" as="geometry"/>
                </mxCell>
                <mxCell id="lBqhdyMT2XARNl9-Eb8Q-68" value="GPA" style="ellipse;whiteSpace=wrap;html=1;" parent="1" vertex="1">
                    <mxGeometry x="940" y="325" width="70" height="45" as="geometry"/>
                </mxCell>
                <mxCell id="lBqhdyMT2XARNl9-Eb8Q-69" value="" style="endArrow=none;html=1;rounded=0;" parent="1" source="lBqhdyMT2XARNl9-Eb8Q-68" target="lBqhdyMT2XARNl9-Eb8Q-19" edge="1">
                    <mxGeometry width="50" height="50" relative="1" as="geometry">
                        <mxPoint x="630" y="330" as="sourcePoint"/>
                        <mxPoint x="680" y="280" as="targetPoint"/>
                    </mxGeometry>
                </mxCell>
                <mxCell id="lBqhdyMT2XARNl9-Eb8Q-70" value="gioi tinh" style="ellipse;whiteSpace=wrap;html=1;" parent="1" vertex="1">
                    <mxGeometry x="235" y="90" width="90" height="50" as="geometry"/>
                </mxCell>
                <mxCell id="lBqhdyMT2XARNl9-Eb8Q-71" value="" style="endArrow=none;html=1;rounded=0;" parent="1" source="lBqhdyMT2XARNl9-Eb8Q-70" target="lBqhdyMT2XARNl9-Eb8Q-1" edge="1">
                    <mxGeometry width="50" height="50" relative="1" as="geometry">
                        <mxPoint x="380" y="350" as="sourcePoint"/>
                        <mxPoint x="430" y="300" as="targetPoint"/>
                    </mxGeometry>
                </mxCell>
                <mxCell id="lBqhdyMT2XARNl9-Eb8Q-83" value="xa/phuong" style="ellipse;whiteSpace=wrap;html=1;" parent="1" vertex="1">
                    <mxGeometry x="30" y="-33" width="70" height="33" as="geometry"/>
                </mxCell>
                <mxCell id="lBqhdyMT2XARNl9-Eb8Q-84" value="quan/huyen" style="ellipse;whiteSpace=wrap;html=1;" parent="1" vertex="1">
                    <mxGeometry x="290" y="-41.5" width="80" height="50" as="geometry"/>
                </mxCell>
                <mxCell id="lBqhdyMT2XARNl9-Eb8Q-85" value="tinh/thanh pho" style="ellipse;whiteSpace=wrap;html=1;" parent="1" vertex="1">
                    <mxGeometry x="130" y="-93" width="95" height="60" as="geometry"/>
                </mxCell>
                <mxCell id="lBqhdyMT2XARNl9-Eb8Q-86" value="" style="endArrow=none;html=1;rounded=0;" parent="1" source="lBqhdyMT2XARNl9-Eb8Q-83" target="lBqhdyMT2XARNl9-Eb8Q-3" edge="1">
                    <mxGeometry width="50" height="50" relative="1" as="geometry">
                        <mxPoint x="380" y="500" as="sourcePoint"/>
                        <mxPoint x="430" y="450" as="targetPoint"/>
                    </mxGeometry>
                </mxCell>
                <mxCell id="lBqhdyMT2XARNl9-Eb8Q-87" value="" style="endArrow=none;html=1;rounded=0;" parent="1" source="lBqhdyMT2XARNl9-Eb8Q-84" target="lBqhdyMT2XARNl9-Eb8Q-3" edge="1">
                    <mxGeometry width="50" height="50" relative="1" as="geometry">
                        <mxPoint x="380" y="500" as="sourcePoint"/>
                        <mxPoint x="430" y="450" as="targetPoint"/>
                    </mxGeometry>
                </mxCell>
                <mxCell id="lBqhdyMT2XARNl9-Eb8Q-88" value="" style="endArrow=none;html=1;rounded=0;" parent="1" source="lBqhdyMT2XARNl9-Eb8Q-85" target="lBqhdyMT2XARNl9-Eb8Q-3" edge="1">
                    <mxGeometry width="50" height="50" relative="1" as="geometry">
                        <mxPoint x="460" y="640" as="sourcePoint"/>
                        <mxPoint x="510" y="590" as="targetPoint"/>
                    </mxGeometry>
                </mxCell>
                <mxCell id="2" value="Diễn đàn" style="rounded=0;whiteSpace=wrap;html=1;" vertex="1" parent="1">
                    <mxGeometry x="205" y="600" width="120" height="60" as="geometry"/>
                </mxCell>
                <mxCell id="3" value="thời gian" style="ellipse;whiteSpace=wrap;html=1;" vertex="1" parent="1">
                    <mxGeometry x="50" y="710" width="120" height="80" as="geometry"/>
                </mxCell>
                <mxCell id="4" value="nội dung&amp;nbsp;" style="ellipse;whiteSpace=wrap;html=1;" vertex="1" parent="1">
                    <mxGeometry x="225" y="730" width="120" height="80" as="geometry"/>
                </mxCell>
                <mxCell id="5" value="tiêu đề&amp;nbsp;" style="ellipse;whiteSpace=wrap;html=1;" vertex="1" parent="1">
                    <mxGeometry x="425" y="690" width="120" height="80" as="geometry"/>
                </mxCell>
                <mxCell id="6" value="" style="endArrow=none;html=1;" edge="1" parent="1" source="3" target="2">
                    <mxGeometry width="50" height="50" relative="1" as="geometry">
                        <mxPoint x="180" y="630" as="sourcePoint"/>
                        <mxPoint x="230" y="580" as="targetPoint"/>
                    </mxGeometry>
                </mxCell>
                <mxCell id="7" value="" style="endArrow=none;html=1;" edge="1" parent="1" source="4" target="2">
                    <mxGeometry width="50" height="50" relative="1" as="geometry">
                        <mxPoint x="360" y="680" as="sourcePoint"/>
                        <mxPoint x="410" y="630" as="targetPoint"/>
                    </mxGeometry>
                </mxCell>
                <mxCell id="8" value="" style="endArrow=none;html=1;" edge="1" parent="1" source="2" target="5">
                    <mxGeometry width="50" height="50" relative="1" as="geometry">
                        <mxPoint x="410" y="620" as="sourcePoint"/>
                        <mxPoint x="460" y="570" as="targetPoint"/>
                    </mxGeometry>
                </mxCell>
                <mxCell id="10" value="" style="endArrow=none;html=1;" edge="1" parent="1" source="12" target="lBqhdyMT2XARNl9-Eb8Q-1">
                    <mxGeometry width="50" height="50" relative="1" as="geometry">
                        <mxPoint x="214.04255319148933" y="430" as="sourcePoint"/>
                        <mxPoint x="220" y="350" as="targetPoint"/>
                    </mxGeometry>
                </mxCell>
                <mxCell id="11" value="" style="endArrow=none;html=1;entryX=0.5;entryY=1;entryDx=0;entryDy=0;" edge="1" parent="1" source="2" target="12">
                    <mxGeometry width="50" height="50" relative="1" as="geometry">
                        <mxPoint x="230" y="590" as="sourcePoint"/>
                        <mxPoint x="204.95000000000005" y="517.0300000000002" as="targetPoint"/>
                    </mxGeometry>
                </mxCell>
                <mxCell id="12" value="Đăng tin" style="rhombus;whiteSpace=wrap;html=1;" vertex="1" parent="1">
                    <mxGeometry x="160" y="430" width="130" height="80" as="geometry"/>
                </mxCell>
                <mxCell id="13" value="Thông tin" style="rhombus;whiteSpace=wrap;html=1;" vertex="1" parent="1">
                    <mxGeometry x="580" y="210" width="95" height="80" as="geometry"/>
                </mxCell>
            </root>
        </mxGraphModel>
    </diagram>
</mxfile>